<?xml version="1.0" encoding="UTF-8" standalone="no"?>
<!DOCTYPE svg PUBLIC "-//W3C//DTD SVG 1.1//EN" "http://www.w3.org/Graphics/SVG/1.1/DTD/svg11.dtd">
<!-- Created with Vectornator (http://vectornator.io/) -->
<svg height="100%" stroke-miterlimit="10" style="fill-rule:nonzero;clip-rule:evenodd;stroke-linecap:round;stroke-linejoin:round;" version="1.1" viewBox="0 0 640 320" width="100%" xml:space="preserve" xmlns="http://www.w3.org/2000/svg" xmlns:vectornator="http://vectornator.io" xmlns:xlink="http://www.w3.org/1999/xlink">
<defs/>
<g id="Untitled" vectornator:layerName="Untitled">
<g opacity="1">
<path d="M31.5813 318.536C30.8794 318.536 30.5285 318.536 30.2604 318.4C30.0246 318.279 29.8329 318.088 29.7127 317.852C29.5761 317.584 29.5761 317.233 29.5761 316.531L29.5761 227.005C29.5761 226.303 29.5761 225.952 29.7127 225.684C29.8329 225.448 30.0246 225.257 30.2604 225.137C30.5285 225 30.8794 225 31.5813 225L66.978 225C76.5233 225 84.1206 227.781 89.7698 233.343C95.5164 238.808 98.3898 245.883 98.3898 254.568C98.3898 261.887 96.3444 267.937 92.2535 272.719C88.2601 277.403 82.4647 280.574 74.8675 282.233L102.277 316.912C102.688 317.432 102.894 317.693 102.893 317.912C102.893 318.102 102.806 318.282 102.657 318.4C102.486 318.536 102.154 318.536 101.49 318.536L83.9824 318.536C83.6276 318.536 83.4502 318.536 83.2865 318.491C83.1415 318.451 83.0048 318.385 82.8831 318.297C82.7457 318.197 82.6352 318.058 82.4141 317.781L54.9072 283.258L46.6699 283.258L46.6699 316.531C46.6699 317.233 46.6699 317.584 46.5333 317.852C46.4132 318.088 46.2215 318.279 45.9856 318.4C45.7176 318.536 45.3666 318.536 44.6647 318.536L31.5813 318.536ZM46.6699 268.327L64.9326 268.327C69.9974 268.327 73.9909 267.156 76.9129 264.814C79.8349 262.375 81.2959 258.959 81.2959 254.568C81.2959 250.177 79.8349 246.81 76.9129 244.468C73.9909 242.028 69.9974 240.809 64.9326 240.809L46.6699 240.809L46.6699 268.327Z" fill="#506cf7" fill-rule="nonzero" opacity="1" stroke="none"/>
<path d="M142.83 320C131.726 320 122.571 316.438 115.363 309.315C108.253 302.191 104.697 293.067 104.697 281.942C104.697 271.11 108.301 262.084 115.509 254.863C122.717 247.544 131.824 243.885 142.83 243.885C152.959 243.885 161.336 247.105 167.959 253.545C174.68 259.986 178.04 268.866 178.04 280.186C178.04 281.389 178.022 282.519 177.985 283.574C177.962 284.218 177.951 284.54 177.811 284.798C177.69 285.022 177.493 285.212 177.266 285.325C177.002 285.455 176.672 285.455 176.01 285.455L120.476 285.455C120.866 291.408 123.155 296.238 127.343 299.947C131.531 303.557 136.742 305.362 142.976 305.362C151.545 305.362 158.11 302.248 162.67 296.02C163.145 295.371 163.383 295.047 163.649 294.912C163.895 294.786 164.135 294.748 164.409 294.79C164.704 294.836 165.007 295.053 165.614 295.487L174.615 301.929C175.151 302.312 175.419 302.504 175.557 302.767C175.675 302.991 175.724 303.269 175.69 303.52C175.65 303.815 175.471 304.074 175.115 304.593C168.065 314.864 157.303 320 142.83 320ZM121.207 273.745L161.823 273.745C160.946 268.671 158.657 264.719 154.956 261.889C151.352 258.961 147.115 257.498 142.245 257.498C137.181 257.498 132.651 258.912 128.658 261.742C124.762 264.572 122.278 268.573 121.207 273.745Z" fill="#506cf7" fill-rule="nonzero" opacity="1" stroke="none"/>
<path d="M285.25 318.536C284.548 318.536 284.197 318.536 283.929 318.4C283.693 318.279 283.501 318.088 283.381 317.852C283.244 317.584 283.244 317.233 283.244 316.531L283.244 277.405C283.244 271.452 282.124 266.817 279.884 263.499C277.741 260.181 274.527 258.522 270.241 258.522C265.079 258.522 260.94 260.523 257.823 264.524C254.706 268.524 253.05 274.136 252.855 281.357L252.855 316.531C252.855 317.233 252.855 317.584 252.719 317.852C252.599 318.088 252.407 318.279 252.171 318.4C251.903 318.536 251.552 318.536 250.85 318.536L238.789 318.536C238.088 318.536 237.737 318.536 237.469 318.4C237.233 318.279 237.041 318.088 236.921 317.852C236.784 317.584 236.784 317.233 236.784 316.531L236.784 277.405C236.784 271.452 235.664 266.817 233.424 263.499C231.281 260.181 228.067 258.522 223.781 258.522C218.424 258.522 214.139 260.62 210.924 264.816C207.808 269.012 206.249 274.916 206.249 282.528L206.249 316.531C206.249 317.233 206.249 317.584 206.113 317.852C205.992 318.088 205.801 318.279 205.565 318.4C205.297 318.536 204.946 318.536 204.244 318.536L192.183 318.536C191.481 318.536 191.13 318.536 190.862 318.4C190.626 318.279 190.435 318.088 190.315 317.852C190.178 317.584 190.178 317.233 190.178 316.531L190.178 247.354C190.178 246.652 190.178 246.301 190.315 246.033C190.435 245.797 190.626 245.605 190.862 245.485C191.13 245.348 191.481 245.348 192.183 245.348L204.244 245.348C204.946 245.348 205.297 245.348 205.565 245.485C205.801 245.605 205.992 245.797 206.113 246.033C206.249 246.301 206.249 246.652 206.249 247.354L206.249 255.302C210.73 247.69 217.645 243.885 226.996 243.885C238.002 243.885 245.55 248.715 249.641 258.376C251.687 253.789 254.803 250.228 258.992 247.69C263.277 245.153 267.953 243.885 273.017 243.885C281.199 243.885 287.627 246.666 292.303 252.228C296.978 257.79 299.316 265.304 299.316 274.77L299.316 316.531C299.316 317.233 299.316 317.584 299.179 317.852C299.059 318.088 298.867 318.279 298.631 318.4C298.363 318.536 298.012 318.536 297.31 318.536L285.25 318.536Z" fill="#506cf7" fill-rule="nonzero" opacity="1" stroke="none"/>
<g fill="#5865f2" opacity="1" stroke="none">
<path d="M396.233 256.826L379.214 256.826C378.742 254.032 377.855 251.553 376.555 249.39C375.255 247.226 373.631 245.388 371.682 243.876C369.734 242.364 367.523 241.217 365.051 240.435C362.578 239.654 359.929 239.263 357.106 239.263C352.026 239.263 347.534 240.529 343.628 243.063C339.722 245.596 336.664 249.296 334.455 254.162C332.246 259.029 331.142 264.959 331.142 271.953C331.142 279.068 332.252 285.056 334.474 289.917C336.695 294.777 339.756 298.447 343.656 300.925C347.555 303.404 352.014 304.644 357.032 304.644C359.82 304.644 362.439 304.271 364.887 303.526C367.336 302.78 369.537 301.679 371.492 300.221C373.446 298.764 375.091 296.976 376.428 294.858C377.764 292.74 378.693 290.317 379.214 287.59L396.233 287.662C395.602 292.092 394.233 296.25 392.124 300.135C390.015 304.02 387.26 307.437 383.86 310.385C380.46 313.333 376.488 315.635 371.946 317.289C367.404 318.944 362.36 319.771 356.814 319.771C348.633 319.771 341.333 317.874 334.915 314.08C328.496 310.286 323.439 304.82 319.742 297.68C316.045 290.541 314.196 281.966 314.196 271.953C314.196 261.917 316.06 253.332 319.787 246.199C323.515 239.065 328.59 233.605 335.015 229.817C341.439 226.029 348.705 224.135 356.814 224.135C361.984 224.135 366.798 224.865 371.255 226.326C375.713 227.787 379.687 229.919 383.178 232.722C386.669 235.525 389.542 238.946 391.796 242.985C394.051 247.024 395.53 251.638 396.233 256.826Z"/>
<path d="M441.469 319.881C434.657 319.881 428.749 318.378 423.746 315.372C418.743 312.365 414.871 308.162 412.128 302.762C409.386 297.362 408.014 291.068 408.014 283.881C408.014 276.656 409.386 270.335 412.128 264.917C414.871 259.499 418.743 255.287 423.746 252.281C428.749 249.274 434.657 247.771 441.469 247.771C448.281 247.771 454.189 249.274 459.192 252.281C464.195 255.287 468.068 259.499 470.81 264.917C473.552 270.335 474.924 276.656 474.924 283.881C474.924 291.068 473.552 297.362 470.81 302.762C468.068 308.162 464.195 312.365 459.192 315.372C454.189 318.378 448.281 319.881 441.469 319.881ZM441.541 306.68C445.263 306.68 448.36 305.659 450.833 303.617C453.305 301.575 455.157 298.826 456.387 295.372C457.617 291.917 458.233 288.062 458.233 283.808C458.233 279.541 457.617 275.674 456.387 272.208C455.157 268.741 453.305 265.978 450.833 263.917C448.36 261.856 445.263 260.826 441.541 260.826C437.772 260.826 434.639 261.856 432.142 263.917C429.645 265.978 427.781 268.741 426.551 272.208C425.321 275.674 424.706 279.541 424.706 283.808C424.706 288.062 425.321 291.917 426.551 295.372C427.781 298.826 429.645 301.575 432.142 303.617C434.639 305.659 437.772 306.68 441.541 306.68Z"/>
<path d="M488.814 318.499L488.814 248.68L504.779 248.68L504.779 260.317L505.506 260.317C506.779 256.28 508.97 253.162 512.079 250.962C515.187 248.762 518.742 247.662 522.742 247.662C523.651 247.662 524.675 247.704 525.815 247.789C526.954 247.874 527.906 247.996 528.669 248.153L528.669 263.263C527.954 263.038 526.846 262.825 525.346 262.622C523.846 262.418 522.409 262.317 521.033 262.317C518.015 262.317 515.319 262.961 512.946 264.249C510.574 265.537 508.704 267.318 507.337 269.594C505.971 271.87 505.287 274.487 505.287 277.444L505.287 318.499L488.814 318.499Z"/>
<path d="M562.597 319.735C557.118 319.735 552.209 318.328 547.869 315.512C543.53 312.697 540.106 308.606 537.597 303.24C535.088 297.873 533.833 291.359 533.833 283.699C533.833 275.929 535.112 269.371 537.669 264.026C540.227 258.681 543.684 254.635 548.042 251.89C552.399 249.144 557.263 247.771 562.633 247.771C566.742 247.771 570.113 248.461 572.746 249.84C575.38 251.218 577.471 252.873 579.019 254.803C580.567 256.734 581.76 258.535 582.597 260.207L583.288 260.207L583.288 225.408L599.761 225.408L599.761 318.499L583.578 318.499L583.578 307.48L582.597 307.48C581.736 309.189 580.508 310.994 578.914 312.894C577.32 314.794 575.202 316.41 572.56 317.74C569.918 319.07 566.597 319.735 562.597 319.735ZM567.178 306.244C570.682 306.244 573.654 305.297 576.097 303.403C578.539 301.509 580.402 298.863 581.687 295.467C582.972 292.07 583.614 288.111 583.614 283.59C583.614 279.081 582.981 275.155 581.714 271.813C580.448 268.47 578.593 265.876 576.151 264.031C573.708 262.186 570.718 261.263 567.178 261.263C563.53 261.263 560.477 262.222 558.019 264.14C555.562 266.058 553.71 268.697 552.465 272.058C551.219 275.419 550.597 279.262 550.597 283.59C550.597 287.953 551.228 291.843 552.492 295.258C553.756 298.673 555.617 301.357 558.074 303.312C560.532 305.266 563.566 306.244 567.178 306.244Z"/>
</g>
</g>
<g opacity="1">
<path d="M308.719 16.1659C305.432 16.1659 303.787 16.1824 302.531 16.8221C301.427 17.3849 300.532 18.2802 299.969 19.3846C299.329 20.64 299.344 22.285 299.344 25.5721L299.344 68.8846L268.156 38.1346C265.845 35.854 264.705 34.7189 263.375 34.2909C262.206 33.9143 260.92 33.9143 259.75 34.2909C258.421 34.7189 257.28 35.8538 254.969 38.1346L239.125 53.7596C236.756 56.0966 235.568 57.2837 235.125 58.6346C234.735 59.8228 234.735 61.1029 235.125 62.2909C235.568 63.6418 236.756 64.7977 239.125 67.1346L270.125 97.7284L226.094 97.7284C222.807 97.7284 221.162 97.7136 219.906 98.3534C218.802 98.9161 217.907 99.8115 217.344 100.916C216.704 102.171 216.688 103.816 216.688 107.103L216.688 129.103C216.687 132.39 216.704 134.035 217.344 135.291C217.907 136.395 218.802 137.291 219.906 137.853C221.162 138.493 222.807 138.478 226.094 138.478L253.625 138.478C254.28 137.23 254.666 136.82 255.063 136.322C255.595 133.911 256.828 131.793 258.688 130.26C258.727 129.894 258.694 129.792 258.75 129.322C259.772 126.569 259.755 126.56 260.844 125.197C262.522 123.57 262.548 123.577 263.406 123.072C264.027 122.704 264.521 122.465 265.063 122.26C265.311 122.165 265.543 122.085 265.781 122.01C266.375 121.823 267.084 121.652 267.656 121.541C269.868 121.11 271.482 120.84 273.219 120.666C274.999 120.487 276.366 120.373 279.375 120.197C279.383 120.197 281.338 120.09 282.063 120.041C283.917 119.915 284.957 119.858 289.094 119.541C295.552 119.046 298.949 118.794 302.906 118.635C303.676 118.604 304.315 118.655 305.063 118.635L312.531 108.822C315.072 105.48 316.323 103.796 317.875 103.197C319.235 102.672 320.765 102.672 322.125 103.197C323.678 103.796 324.928 105.48 327.469 108.822L335.469 119.322C335.722 119.326 336.027 119.316 336.281 119.322C339.956 119.41 342.529 119.633 344.813 120.353C345.6 120.602 346.401 120.995 347.219 121.51C348.299 121.444 349.813 121.342 350.219 121.322C355.275 121.076 359.324 121.116 363.188 121.51C364.046 121.597 364.861 121.738 365.875 122.135C368.206 123.047 370.319 124.701 371.438 127.353C374.508 129.178 376.579 132.505 376.406 136.322C376.371 137.095 376.088 137.77 375.875 138.478L413.906 138.478C417.193 138.478 418.838 138.493 420.094 137.853C421.197 137.291 422.093 136.395 422.656 135.291C423.295 134.035 423.313 132.39 423.313 129.103L423.313 107.103C423.312 103.816 423.295 102.171 422.656 100.916C422.093 99.8115 421.197 98.9161 420.094 98.3534C418.838 97.7136 417.193 97.7284 413.906 97.7284L369.875 97.7284L400.875 67.1346C403.244 64.7977 404.432 63.6418 404.875 62.2909C405.265 61.1029 405.265 59.7914 404.875 58.6034C404.432 57.2525 403.244 56.0966 400.875 53.7596L385.031 38.1346C382.72 35.854 381.579 34.7189 380.25 34.2909C379.08 33.9143 377.794 33.9143 376.625 34.2909C375.295 34.7189 374.155 35.854 371.844 38.1346L340.656 68.8846L340.656 25.5721C340.656 22.285 340.671 20.64 340.031 19.3846C339.468 18.2802 338.573 17.3849 337.469 16.8221C336.213 16.1824 334.568 16.1659 331.281 16.1659L308.719 16.1659Z" fill="#506cf7" fill-rule="nonzero" opacity="1" stroke="#11111b" stroke-linecap="butt" stroke-linejoin="miter" stroke-width="4"/>
<path d="M371.317 100.094C361.849 95.6645 351.726 92.4451 341.142 90.612C339.842 92.962 338.323 96.1228 337.276 98.6373C326.025 96.9453 314.878 96.9453 303.834 98.6373C302.787 96.1228 301.234 92.962 299.923 90.612C289.327 92.4451 279.192 95.6763 269.724 100.118C250.627 128.976 245.451 157.117 248.039 184.858C260.705 194.317 272.98 200.063 285.048 203.822C288.027 199.722 290.685 195.363 292.974 190.768C288.614 189.112 284.438 187.067 280.492 184.694C281.539 183.918 282.563 183.107 283.552 182.273C307.619 193.53 333.768 193.53 357.547 182.273C358.547 183.107 359.571 183.918 360.607 184.694C356.649 187.079 352.462 189.123 348.102 190.78C350.391 195.363 353.037 199.734 356.028 203.834C368.107 200.074 380.394 194.329 393.06 184.858C396.097 152.699 387.871 124.816 371.317 100.094ZM296.253 167.797C289.028 167.797 283.103 161.053 283.103 152.84C283.103 144.626 288.902 137.87 296.253 137.87C303.604 137.87 309.528 144.615 309.402 152.84C309.413 161.053 303.604 167.797 296.253 167.797ZM344.846 167.797C337.622 167.797 331.697 161.053 331.697 152.84C331.697 144.626 337.495 137.87 344.846 137.87C352.197 137.87 358.122 144.615 357.995 152.84C357.995 161.053 352.197 167.797 344.846 167.797Z" fill="#5865f2" fill-rule="nonzero" opacity="1" stroke="#11111b" stroke-linecap="butt" stroke-linejoin="miter" stroke-width="4"/>
</g>
</g>
</svg>
