<?xml version="1.0" encoding="UTF-8" standalone="no"?>
<!DOCTYPE svg PUBLIC "-//W3C//DTD SVG 1.1//EN" "http://www.w3.org/Graphics/SVG/1.1/DTD/svg11.dtd">
<!-- Created with Vectornator (http://vectornator.io/) -->
<svg height="100%" stroke-miterlimit="10" style="fill-rule:nonzero;clip-rule:evenodd;stroke-linecap:round;stroke-linejoin:round;" version="1.1" viewBox="0 0 570 335" width="100%" xml:space="preserve" xmlns="http://www.w3.org/2000/svg" xmlns:vectornator="http://vectornator.io" xmlns:xlink="http://www.w3.org/1999/xlink">
<defs>
<filter color-interpolation-filters="sRGB" filterUnits="userSpaceOnUse" height="169.495" id="Filter" width="201.609" x="184.195" y="57.1915">
<feDropShadow dx="1.09248e-15" dy="17.8415" flood-color="#000000" flood-opacity="0.33" in="SourceGraphic" result="Shadow" stdDeviation="8.92077"/>
</filter>
</defs>
<clipPath id="ArtboardFrame">
<rect height="335" width="570" x="0" y="0"/>
</clipPath>
<g clip-path="url(#ArtboardFrame)" id="Untitled" vectornator:layerName="Untitled">
<path d="M2.00522 333.536C1.30332 333.536 0.952378 333.536 0.684291 333.4C0.448475 333.279 0.256751 333.088 0.136597 332.852C0 332.584 0 332.233 0 331.531L0 242.005C0 241.303 0 240.952 0.136597 240.684C0.256751 240.448 0.448475 240.257 0.684291 240.137C0.952378 240 1.30332 240 2.00521 240L37.4019 240C46.9472 240 54.5445 242.781 60.1937 248.343C65.9403 253.808 68.8137 260.883 68.8137 269.568C68.8137 276.887 66.7683 282.937 62.6774 287.719C58.684 292.403 52.8886 295.574 45.2914 297.233L72.701 331.912C73.1124 332.432 73.3181 332.693 73.3174 332.912C73.3169 333.102 73.2298 333.282 73.0809 333.4C72.9096 333.536 72.5779 333.536 71.9144 333.536L54.4063 333.536C54.0515 333.536 53.8741 333.536 53.7104 333.491C53.5654 333.451 53.4287 333.385 53.307 333.297C53.1696 333.197 53.0591 333.058 52.838 332.781L25.3311 298.258L17.0938 298.258L17.0938 331.531C17.0938 332.233 17.0938 332.584 16.9572 332.852C16.8371 333.088 16.6454 333.279 16.4095 333.4C16.1415 333.536 15.7905 333.536 15.0886 333.536L2.00522 333.536ZM17.0938 283.327L35.3565 283.327C40.4213 283.327 44.4148 282.156 47.3368 279.814C50.2588 277.375 51.7198 273.959 51.7198 269.568C51.7198 265.177 50.2588 261.81 47.3368 259.468C44.4148 257.028 40.4213 255.809 35.3565 255.809L17.0938 255.809L17.0938 283.327Z" fill="#5865f2" fill-rule="nonzero" opacity="1" stroke="none" vectornator:layerName="path"/>
<path d="M113.254 335C102.15 335 92.9945 331.438 85.7868 324.315C78.6765 317.191 75.1214 308.067 75.1214 296.942C75.1214 286.11 78.7252 277.084 85.9329 269.863C93.1406 262.544 102.248 258.885 113.254 258.885C123.383 258.885 131.76 262.105 138.383 268.545C145.104 274.986 148.464 283.866 148.464 295.186C148.464 296.389 148.446 297.519 148.409 298.574C148.386 299.218 148.375 299.54 148.235 299.798C148.114 300.022 147.917 300.212 147.69 300.325C147.426 300.455 147.096 300.455 146.434 300.455L90.9003 300.455C91.2899 306.408 93.5789 311.238 97.7671 314.947C101.955 318.557 107.166 320.362 113.4 320.362C121.969 320.362 128.534 317.248 133.094 311.02C133.569 310.371 133.807 310.047 134.073 309.912C134.319 309.786 134.559 309.748 134.833 309.79C135.128 309.836 135.431 310.053 136.038 310.487L145.039 316.929C145.575 317.312 145.843 317.504 145.981 317.767C146.099 317.991 146.148 318.269 146.114 318.52C146.074 318.815 145.895 319.074 145.539 319.593C138.489 329.864 127.727 335 113.254 335ZM91.6308 288.745L132.247 288.745C131.37 283.671 129.081 279.719 125.38 276.889C121.776 273.961 117.539 272.498 112.669 272.498C107.605 272.498 103.075 273.912 99.082 276.742C95.186 279.572 92.7022 283.573 91.6308 288.745Z" fill="#5865f2" fill-rule="nonzero" opacity="1" stroke="none" vectornator:layerName="path"/>
<path d="M255.674 333.536C254.972 333.536 254.621 333.536 254.353 333.4C254.117 333.279 253.925 333.088 253.805 332.852C253.668 332.584 253.668 332.233 253.668 331.531L253.668 292.405C253.668 286.452 252.548 281.817 250.308 278.499C248.165 275.181 244.951 273.522 240.665 273.522C235.503 273.522 231.364 275.523 228.247 279.524C225.13 283.524 223.474 289.136 223.279 296.357L223.279 331.531C223.279 332.233 223.279 332.584 223.143 332.852C223.023 333.088 222.831 333.279 222.595 333.4C222.327 333.536 221.976 333.536 221.274 333.536L209.213 333.536C208.512 333.536 208.161 333.536 207.893 333.4C207.657 333.279 207.465 333.088 207.345 332.852C207.208 332.584 207.208 332.233 207.208 331.531L207.208 292.405C207.208 286.452 206.088 281.817 203.848 278.499C201.705 275.181 198.491 273.522 194.205 273.522C188.848 273.522 184.563 275.62 181.348 279.816C178.232 284.012 176.673 289.916 176.673 297.528L176.673 331.531C176.673 332.233 176.673 332.584 176.537 332.852C176.416 333.088 176.225 333.279 175.989 333.4C175.721 333.536 175.37 333.536 174.668 333.536L162.607 333.536C161.905 333.536 161.554 333.536 161.286 333.4C161.05 333.279 160.859 333.088 160.739 332.852C160.602 332.584 160.602 332.233 160.602 331.531L160.602 262.354C160.602 261.652 160.602 261.301 160.739 261.033C160.859 260.797 161.05 260.605 161.286 260.485C161.554 260.348 161.905 260.348 162.607 260.348L174.668 260.348C175.37 260.348 175.721 260.348 175.989 260.485C176.225 260.605 176.416 260.797 176.537 261.033C176.673 261.301 176.673 261.652 176.673 262.354L176.673 270.302C181.154 262.69 188.069 258.885 197.42 258.885C208.426 258.885 215.974 263.715 220.065 273.376C222.111 268.789 225.227 265.228 229.416 262.69C233.701 260.153 238.377 258.885 243.441 258.885C251.623 258.885 258.051 261.666 262.727 267.228C267.402 272.79 269.74 280.304 269.74 289.77L269.74 331.531C269.74 332.233 269.74 332.584 269.603 332.852C269.483 333.088 269.291 333.279 269.055 333.4C268.787 333.536 268.436 333.536 267.734 333.536L255.674 333.536Z" fill="#5865f2" fill-rule="nonzero" opacity="1" stroke="none" vectornator:layerName="path"/>
<g fill="#5865f2" opacity="1" stroke="none">
<path d="M366.657 271.826L349.638 271.826C349.166 269.032 348.279 266.553 346.979 264.39C345.679 262.226 344.055 260.388 342.106 258.876C340.158 257.364 337.947 256.217 335.474 255.435C333.002 254.654 330.353 254.263 327.529 254.263C322.45 254.263 317.958 255.529 314.052 258.063C310.146 260.596 307.088 264.296 304.879 269.162C302.67 274.029 301.566 279.959 301.566 286.953C301.566 294.068 302.676 300.056 304.898 304.917C307.119 309.777 310.18 313.447 314.08 315.925C317.979 318.404 322.438 319.644 327.456 319.644C330.244 319.644 332.862 319.271 335.311 318.526C337.76 317.78 339.961 316.679 341.915 315.221C343.87 313.764 345.515 311.976 346.852 309.858C348.188 307.74 349.117 305.317 349.638 302.59L366.657 302.662C366.026 307.092 364.657 311.25 362.548 315.135C360.438 319.02 357.684 322.437 354.284 325.385C350.884 328.333 346.912 330.635 342.37 332.289C337.828 333.944 332.784 334.771 327.238 334.771C319.056 334.771 311.757 332.874 305.338 329.08C298.92 325.286 293.863 319.82 290.166 312.68C286.469 305.541 284.62 296.966 284.62 286.953C284.62 276.917 286.484 268.332 290.211 261.199C293.939 254.065 299.014 248.605 305.439 244.817C311.863 241.029 319.129 239.135 327.238 239.135C332.408 239.135 337.222 239.865 341.679 241.326C346.137 242.787 350.111 244.919 353.602 247.722C357.093 250.525 359.966 253.946 362.22 257.985C364.475 262.024 365.953 266.638 366.657 271.826Z"/>
<path d="M411.893 334.881C405.081 334.881 399.173 333.378 394.17 330.372C389.167 327.365 385.294 323.162 382.552 317.762C379.81 312.362 378.438 306.068 378.438 298.881C378.438 291.656 379.81 285.335 382.552 279.917C385.294 274.499 389.167 270.287 394.17 267.281C399.173 264.274 405.081 262.771 411.893 262.771C418.705 262.771 424.613 264.274 429.616 267.281C434.619 270.287 438.491 274.499 441.234 279.917C443.976 285.335 445.347 291.656 445.347 298.881C445.347 306.068 443.976 312.362 441.234 317.762C438.491 323.162 434.619 327.365 429.616 330.372C424.613 333.378 418.705 334.881 411.893 334.881ZM411.965 321.68C415.687 321.68 418.784 320.659 421.257 318.617C423.729 316.575 425.581 313.826 426.811 310.372C428.041 306.917 428.656 303.062 428.656 298.808C428.656 294.541 428.041 290.674 426.811 287.208C425.581 283.741 423.729 280.978 421.257 278.917C418.784 276.856 415.687 275.826 411.965 275.826C408.196 275.826 405.063 276.856 402.566 278.917C400.069 280.978 398.205 283.741 396.975 287.208C395.745 290.674 395.129 294.541 395.129 298.808C395.129 303.062 395.745 306.917 396.975 310.372C398.205 313.826 400.069 316.575 402.566 318.617C405.063 320.659 408.196 321.68 411.965 321.68Z"/>
<path d="M459.238 333.499L459.238 263.68L475.203 263.68L475.203 275.317L475.93 275.317C477.203 271.28 479.394 268.162 482.502 265.962C485.611 263.762 489.166 262.662 493.166 262.662C494.075 262.662 495.099 262.704 496.239 262.789C497.378 262.874 498.33 262.996 499.093 263.153L499.093 278.263C498.378 278.038 497.27 277.825 495.77 277.622C494.27 277.418 492.832 277.317 491.457 277.317C488.438 277.317 485.743 277.961 483.37 279.249C480.998 280.537 479.128 282.318 477.761 284.594C476.395 286.87 475.711 289.487 475.711 292.444L475.711 333.499L459.238 333.499Z"/>
<path d="M533.02 334.735C527.542 334.735 522.633 333.328 518.293 330.512C513.954 327.697 510.529 323.606 508.02 318.24C505.511 312.873 504.257 306.359 504.257 298.699C504.257 290.929 505.536 284.371 508.093 279.026C510.651 273.681 514.108 269.635 518.466 266.89C522.823 264.144 527.687 262.771 533.057 262.771C537.166 262.771 540.537 263.461 543.17 264.84C545.804 266.218 547.895 267.873 549.443 269.803C550.991 271.734 552.184 273.535 553.02 275.207L553.712 275.207L553.712 240.408L570.185 240.408L570.185 333.499L554.002 333.499L554.002 322.48L553.02 322.48C552.16 324.189 550.932 325.994 549.338 327.894C547.744 329.794 545.626 331.41 542.984 332.74C540.342 334.07 537.02 334.735 533.02 334.735ZM537.602 321.244C541.105 321.244 544.078 320.297 546.52 318.403C548.963 316.509 550.826 313.863 552.111 310.467C553.396 307.07 554.038 303.111 554.038 298.59C554.038 294.081 553.405 290.155 552.138 286.813C550.872 283.47 549.017 280.876 546.575 279.031C544.132 277.186 541.141 276.263 537.602 276.263C533.954 276.263 530.901 277.222 528.443 279.14C525.986 281.058 524.134 283.697 522.889 287.058C521.643 290.419 521.02 294.262 521.02 298.59C521.02 302.953 521.652 306.843 522.916 310.258C524.18 313.673 526.04 316.357 528.498 318.312C530.956 320.266 533.99 321.244 537.602 321.244Z"/>
</g>
<g opacity="1" vectornator:layerName="Group 1">
<path d="M392.65 127.5C392.65 68.0468 344.453 19.8504 285 19.8504C225.547 19.8504 177.35 68.0468 177.35 127.5C177.35 186.953 225.547 235.15 285 235.15C344.453 235.15 392.65 186.953 392.65 127.5Z" fill="#5865f2" fill-rule="nonzero" opacity="1" stroke="none" vectornator:layerName="Oval 1"/>
<path d="M290.681 132.054C288.75 129.515 287.785 128.245 286.605 127.79C285.572 127.391 284.427 127.391 283.393 127.79C282.214 128.245 281.248 129.515 279.318 132.054L246.606 175.087C243.806 178.77 242.406 180.612 242.431 182.155C242.453 183.497 243.079 184.759 244.135 185.589C245.348 186.543 247.661 186.543 252.287 186.543L317.711 186.543C322.338 186.543 324.651 186.543 325.864 185.589C326.92 184.759 327.545 183.497 327.567 182.155C327.592 180.612 326.193 178.77 323.393 175.087L290.681 132.054ZM269.299 68.7885C269.299 66.2905 269.299 65.0414 269.786 64.0874C270.213 63.2482 270.896 62.5657 271.735 62.1381C272.689 61.6519 273.938 61.6519 276.436 61.6519L293.564 61.6519C296.062 61.6519 297.311 61.6519 298.265 62.1381C299.104 62.5657 299.787 63.2482 300.214 64.0874C300.701 65.0414 300.701 66.2905 300.701 68.7885L300.701 101.707L324.395 78.3294C326.152 76.5963 327.03 75.7296 328.041 75.4043C328.929 75.1181 329.886 75.1181 330.774 75.4043C331.785 75.7296 332.663 76.5963 334.42 78.3294L346.462 90.211C348.262 91.987 349.162 92.8749 349.499 93.9015C349.795 94.8043 349.795 95.7781 349.499 96.6809C349.162 97.7075 348.262 98.5955 346.462 100.371L322.905 123.614L356.366 123.614C358.864 123.614 360.113 123.614 361.067 124.1C361.906 124.528 362.589 125.21 363.017 126.049C363.503 127.004 363.503 128.253 363.503 130.751L363.503 147.459C363.503 149.957 363.503 151.206 363.017 152.16C362.589 152.999 361.906 153.681 361.067 154.109C360.113 154.595 358.864 154.595 356.366 154.595L213.634 154.595C211.136 154.595 209.887 154.595 208.933 154.109C208.093 153.681 207.411 152.999 206.983 152.16C206.497 151.206 206.497 149.957 206.497 147.459L206.497 130.751C206.497 128.253 206.497 127.004 206.983 126.049C207.411 125.21 208.093 124.528 208.933 124.1C209.887 123.614 211.136 123.614 213.634 123.614L247.095 123.614L223.537 100.372C221.737 98.596 220.837 97.708 220.501 96.6814C220.205 95.7786 220.205 94.8049 220.501 93.9019C220.837 92.8753 221.737 91.9873 223.537 90.2114L235.58 78.33C237.337 76.5967 238.215 75.7301 239.225 75.4049C240.114 75.1187 241.07 75.1187 241.959 75.4049C242.969 75.7301 243.848 76.5967 245.604 78.3298L269.299 101.708L269.299 68.7885Z" fill="#ffffff" fill-rule="evenodd" filter="url(#Filter)" stroke="none" vectornator:layerName="path 1" vectornator:shadowAngle="1.5708" vectornator:shadowColor="#000000" vectornator:shadowOffset="17.8415" vectornator:shadowOpacity="0.33" vectornator:shadowRadius="17.8415"/>
</g>
</g>
</svg>
