<?xml version="1.0" encoding="UTF-8" standalone="no"?>
<!DOCTYPE svg PUBLIC "-//W3C//DTD SVG 1.1//EN" "http://www.w3.org/Graphics/SVG/1.1/DTD/svg11.dtd">
<!-- Created with Vectornator (http://vectornator.io/) -->
<svg height="100%" stroke-miterlimit="10" style="fill-rule:nonzero;clip-rule:evenodd;stroke-linecap:round;stroke-linejoin:round;" version="1.1" viewBox="0 0 570 335" width="100%" xml:space="preserve" xmlns="http://www.w3.org/2000/svg" xmlns:vectornator="http://vectornator.io" xmlns:xlink="http://www.w3.org/1999/xlink">
<defs/>
<clipPath id="ArtboardFrame">
<rect height="335" width="570" x="0" y="0"/>
</clipPath>
<g clip-path="url(#ArtboardFrame)" id="Untitled" vectornator:layerName="Untitled">
<path d="M2.00522 333.536C1.30332 333.536 0.952378 333.536 0.684291 333.4C0.448475 333.279 0.256751 333.088 0.136597 332.852C0 332.584 0 332.233 0 331.531L0 242.005C0 241.303 0 240.952 0.136597 240.684C0.256751 240.448 0.448475 240.257 0.684291 240.137C0.952378 240 1.30332 240 2.00521 240L37.4019 240C46.9472 240 54.5445 242.781 60.1937 248.343C65.9403 253.808 68.8137 260.883 68.8137 269.568C68.8137 276.887 66.7683 282.937 62.6774 287.719C58.684 292.403 52.8886 295.574 45.2914 297.233L72.701 331.912C73.1124 332.432 73.3181 332.693 73.3174 332.912C73.3169 333.102 73.2298 333.282 73.0809 333.4C72.9096 333.536 72.5779 333.536 71.9144 333.536L54.4063 333.536C54.0515 333.536 53.8741 333.536 53.7104 333.491C53.5654 333.451 53.4287 333.385 53.307 333.297C53.1696 333.197 53.0591 333.058 52.838 332.781L25.3311 298.258L17.0938 298.258L17.0938 331.531C17.0938 332.233 17.0938 332.584 16.9572 332.852C16.8371 333.088 16.6454 333.279 16.4095 333.4C16.1415 333.536 15.7905 333.536 15.0886 333.536L2.00522 333.536ZM17.0938 283.327L35.3565 283.327C40.4213 283.327 44.4148 282.156 47.3368 279.814C50.2588 277.375 51.7198 273.959 51.7198 269.568C51.7198 265.177 50.2588 261.81 47.3368 259.468C44.4148 257.028 40.4213 255.809 35.3565 255.809L17.0938 255.809L17.0938 283.327Z" fill="#506cf7" fill-rule="nonzero" opacity="1" stroke="none"/>
<path d="M113.254 335C102.15 335 92.9945 331.438 85.7868 324.315C78.6765 317.191 75.1214 308.067 75.1214 296.942C75.1214 286.11 78.7252 277.084 85.9329 269.863C93.1406 262.544 102.248 258.885 113.254 258.885C123.383 258.885 131.76 262.105 138.383 268.545C145.104 274.986 148.464 283.866 148.464 295.186C148.464 296.389 148.446 297.519 148.409 298.574C148.386 299.218 148.375 299.54 148.235 299.798C148.114 300.022 147.917 300.212 147.69 300.325C147.426 300.455 147.096 300.455 146.434 300.455L90.9003 300.455C91.2899 306.408 93.5789 311.238 97.7671 314.947C101.955 318.557 107.166 320.362 113.4 320.362C121.969 320.362 128.534 317.248 133.094 311.02C133.569 310.371 133.807 310.047 134.073 309.912C134.319 309.786 134.559 309.748 134.833 309.79C135.128 309.836 135.431 310.053 136.038 310.487L145.039 316.929C145.575 317.312 145.843 317.504 145.981 317.767C146.099 317.991 146.148 318.269 146.114 318.52C146.074 318.815 145.895 319.074 145.539 319.593C138.489 329.864 127.727 335 113.254 335ZM91.6308 288.745L132.247 288.745C131.37 283.671 129.081 279.719 125.38 276.889C121.776 273.961 117.539 272.498 112.669 272.498C107.605 272.498 103.075 273.912 99.082 276.742C95.186 279.572 92.7022 283.573 91.6308 288.745Z" fill="#506cf7" fill-rule="nonzero" opacity="1" stroke="none"/>
<path d="M255.674 333.536C254.972 333.536 254.621 333.536 254.353 333.4C254.117 333.279 253.925 333.088 253.805 332.852C253.668 332.584 253.668 332.233 253.668 331.531L253.668 292.405C253.668 286.452 252.548 281.817 250.308 278.499C248.165 275.181 244.951 273.522 240.665 273.522C235.503 273.522 231.364 275.523 228.247 279.524C225.13 283.524 223.474 289.136 223.279 296.357L223.279 331.531C223.279 332.233 223.279 332.584 223.143 332.852C223.023 333.088 222.831 333.279 222.595 333.4C222.327 333.536 221.976 333.536 221.274 333.536L209.213 333.536C208.512 333.536 208.161 333.536 207.893 333.4C207.657 333.279 207.465 333.088 207.345 332.852C207.208 332.584 207.208 332.233 207.208 331.531L207.208 292.405C207.208 286.452 206.088 281.817 203.848 278.499C201.705 275.181 198.491 273.522 194.205 273.522C188.848 273.522 184.563 275.62 181.348 279.816C178.232 284.012 176.673 289.916 176.673 297.528L176.673 331.531C176.673 332.233 176.673 332.584 176.537 332.852C176.416 333.088 176.225 333.279 175.989 333.4C175.721 333.536 175.37 333.536 174.668 333.536L162.607 333.536C161.905 333.536 161.554 333.536 161.286 333.4C161.05 333.279 160.859 333.088 160.739 332.852C160.602 332.584 160.602 332.233 160.602 331.531L160.602 262.354C160.602 261.652 160.602 261.301 160.739 261.033C160.859 260.797 161.05 260.605 161.286 260.485C161.554 260.348 161.905 260.348 162.607 260.348L174.668 260.348C175.37 260.348 175.721 260.348 175.989 260.485C176.225 260.605 176.416 260.797 176.537 261.033C176.673 261.301 176.673 261.652 176.673 262.354L176.673 270.302C181.154 262.69 188.069 258.885 197.42 258.885C208.426 258.885 215.974 263.715 220.065 273.376C222.111 268.789 225.227 265.228 229.416 262.69C233.701 260.153 238.377 258.885 243.441 258.885C251.623 258.885 258.051 261.666 262.727 267.228C267.402 272.79 269.74 280.304 269.74 289.77L269.74 331.531C269.74 332.233 269.74 332.584 269.603 332.852C269.483 333.088 269.291 333.279 269.055 333.4C268.787 333.536 268.436 333.536 267.734 333.536L255.674 333.536Z" fill="#506cf7" fill-rule="nonzero" opacity="1" stroke="none"/>
<g fill="#5865f2" opacity="1" stroke="none">
<path d="M366.657 271.826L349.638 271.826C349.166 269.032 348.279 266.553 346.979 264.39C345.679 262.226 344.055 260.388 342.106 258.876C340.158 257.364 337.947 256.217 335.474 255.435C333.002 254.654 330.353 254.263 327.529 254.263C322.45 254.263 317.958 255.529 314.052 258.063C310.146 260.596 307.088 264.296 304.879 269.162C302.67 274.029 301.566 279.959 301.566 286.953C301.566 294.068 302.676 300.056 304.898 304.917C307.119 309.777 310.18 313.447 314.08 315.925C317.979 318.404 322.438 319.644 327.456 319.644C330.244 319.644 332.862 319.271 335.311 318.526C337.76 317.78 339.961 316.679 341.915 315.221C343.87 313.764 345.515 311.976 346.852 309.858C348.188 307.74 349.117 305.317 349.638 302.59L366.657 302.662C366.026 307.092 364.657 311.25 362.548 315.135C360.438 319.02 357.684 322.437 354.284 325.385C350.884 328.333 346.912 330.635 342.37 332.289C337.828 333.944 332.784 334.771 327.238 334.771C319.056 334.771 311.757 332.874 305.338 329.08C298.92 325.286 293.863 319.82 290.166 312.68C286.469 305.541 284.62 296.966 284.62 286.953C284.62 276.917 286.484 268.332 290.211 261.199C293.939 254.065 299.014 248.605 305.439 244.817C311.863 241.029 319.129 239.135 327.238 239.135C332.408 239.135 337.222 239.865 341.679 241.326C346.137 242.787 350.111 244.919 353.602 247.722C357.093 250.525 359.966 253.946 362.22 257.985C364.475 262.024 365.953 266.638 366.657 271.826Z"/>
<path d="M411.893 334.881C405.081 334.881 399.173 333.378 394.17 330.372C389.167 327.365 385.294 323.162 382.552 317.762C379.81 312.362 378.438 306.068 378.438 298.881C378.438 291.656 379.81 285.335 382.552 279.917C385.294 274.499 389.167 270.287 394.17 267.281C399.173 264.274 405.081 262.771 411.893 262.771C418.705 262.771 424.613 264.274 429.616 267.281C434.619 270.287 438.491 274.499 441.234 279.917C443.976 285.335 445.347 291.656 445.347 298.881C445.347 306.068 443.976 312.362 441.234 317.762C438.491 323.162 434.619 327.365 429.616 330.372C424.613 333.378 418.705 334.881 411.893 334.881ZM411.965 321.68C415.687 321.68 418.784 320.659 421.257 318.617C423.729 316.575 425.581 313.826 426.811 310.372C428.041 306.917 428.656 303.062 428.656 298.808C428.656 294.541 428.041 290.674 426.811 287.208C425.581 283.741 423.729 280.978 421.257 278.917C418.784 276.856 415.687 275.826 411.965 275.826C408.196 275.826 405.063 276.856 402.566 278.917C400.069 280.978 398.205 283.741 396.975 287.208C395.745 290.674 395.129 294.541 395.129 298.808C395.129 303.062 395.745 306.917 396.975 310.372C398.205 313.826 400.069 316.575 402.566 318.617C405.063 320.659 408.196 321.68 411.965 321.68Z"/>
<path d="M459.238 333.499L459.238 263.68L475.203 263.68L475.203 275.317L475.93 275.317C477.203 271.28 479.394 268.162 482.502 265.962C485.611 263.762 489.166 262.662 493.166 262.662C494.075 262.662 495.099 262.704 496.239 262.789C497.378 262.874 498.33 262.996 499.093 263.153L499.093 278.263C498.378 278.038 497.27 277.825 495.77 277.622C494.27 277.418 492.832 277.317 491.457 277.317C488.438 277.317 485.743 277.961 483.37 279.249C480.998 280.537 479.128 282.318 477.761 284.594C476.395 286.87 475.711 289.487 475.711 292.444L475.711 333.499L459.238 333.499Z"/>
<path d="M533.02 334.735C527.542 334.735 522.633 333.328 518.293 330.512C513.954 327.697 510.529 323.606 508.02 318.24C505.511 312.873 504.257 306.359 504.257 298.699C504.257 290.929 505.536 284.371 508.093 279.026C510.651 273.681 514.108 269.635 518.466 266.89C522.823 264.144 527.687 262.771 533.057 262.771C537.166 262.771 540.537 263.461 543.17 264.84C545.804 266.218 547.895 267.873 549.443 269.803C550.991 271.734 552.184 273.535 553.02 275.207L553.712 275.207L553.712 240.408L570.185 240.408L570.185 333.499L554.002 333.499L554.002 322.48L553.02 322.48C552.16 324.189 550.932 325.994 549.338 327.894C547.744 329.794 545.626 331.41 542.984 332.74C540.342 334.07 537.02 334.735 533.02 334.735ZM537.602 321.244C541.105 321.244 544.078 320.297 546.52 318.403C548.963 316.509 550.826 313.863 552.111 310.467C553.396 307.07 554.038 303.111 554.038 298.59C554.038 294.081 553.405 290.155 552.138 286.813C550.872 283.47 549.017 280.876 546.575 279.031C544.132 277.186 541.141 276.263 537.602 276.263C533.954 276.263 530.901 277.222 528.443 279.14C525.986 281.058 524.134 283.697 522.889 287.058C521.643 290.419 521.02 294.262 521.02 298.59C521.02 302.953 521.652 306.843 522.916 310.258C524.18 313.673 526.04 316.357 528.498 318.312C530.956 320.266 533.99 321.244 537.602 321.244Z"/>
</g>
<path d="M273.719 35.3125C270.432 35.3125 268.787 35.329 267.531 35.9688C266.427 36.5315 265.532 37.4269 264.969 38.5312C264.329 39.7866 264.344 41.4316 264.344 44.7188L264.344 88.0312L233.156 57.2812C230.845 55.0006 229.705 53.8655 228.375 53.4375C227.206 53.0609 225.92 53.0609 224.75 53.4375C223.421 53.8655 222.28 55.0004 219.969 57.2812L204.125 72.9062C201.756 75.2432 200.568 76.4303 200.125 77.7812C199.735 78.9695 199.735 80.2495 200.125 81.4375C200.568 82.7884 201.756 83.9443 204.125 86.2812L235.125 116.875L191.094 116.875C187.807 116.875 186.162 116.86 184.906 117.5C183.802 118.063 182.907 118.958 182.344 120.062C181.704 121.318 181.687 122.963 181.688 126.25L181.688 148.25C181.687 151.537 181.704 153.182 182.344 154.438C182.907 155.542 183.802 156.437 184.906 157C186.162 157.64 187.807 157.625 191.094 157.625L218.625 157.625C219.28 156.377 219.666 155.966 220.062 155.469C220.595 153.057 221.828 150.94 223.688 149.406C223.727 149.04 223.694 148.938 223.75 148.469C224.772 145.716 224.755 145.706 225.844 144.344C227.522 142.717 227.548 142.724 228.406 142.219C229.027 141.851 229.521 141.612 230.062 141.406C230.311 141.312 230.543 141.231 230.781 141.156C231.375 140.969 232.084 140.799 232.656 140.688C234.868 140.256 236.482 139.987 238.219 139.812C239.999 139.634 241.366 139.52 244.375 139.344C244.383 139.343 246.338 139.237 247.062 139.188C248.917 139.061 249.957 139.005 254.094 138.688C260.552 138.192 263.949 137.94 267.906 137.781C268.676 137.75 269.315 137.802 270.062 137.781L277.531 127.969C280.072 124.627 281.323 122.943 282.875 122.344C284.235 121.819 285.765 121.819 287.125 122.344C288.678 122.943 289.928 124.627 292.469 127.969L300.469 138.469C300.722 138.472 301.027 138.463 301.281 138.469C304.956 138.556 307.529 138.78 309.812 139.5C310.6 139.748 311.401 140.142 312.219 140.656C313.299 140.591 314.813 140.489 315.219 140.469C320.275 140.223 324.324 140.262 328.188 140.656C329.046 140.744 329.861 140.884 330.875 141.281C333.206 142.193 335.319 143.848 336.438 146.5C339.508 148.324 341.579 151.652 341.406 155.469C341.371 156.241 341.088 156.916 340.875 157.625L378.906 157.625C382.193 157.625 383.838 157.64 385.094 157C386.197 156.437 387.093 155.542 387.656 154.438C388.295 153.182 388.312 151.537 388.312 148.25L388.312 126.25C388.312 122.963 388.295 121.318 387.656 120.062C387.093 118.958 386.197 118.063 385.094 117.5C383.838 116.86 382.193 116.875 378.906 116.875L334.875 116.875L365.875 86.2812C368.244 83.9443 369.432 82.7884 369.875 81.4375C370.265 80.2495 370.265 78.938 369.875 77.75C369.432 76.3991 368.244 75.2432 365.875 72.9062L350.031 57.2812C347.72 55.0006 346.579 53.8655 345.25 53.4375C344.08 53.0609 342.794 53.0609 341.625 53.4375C340.295 53.8655 339.155 55.0006 336.844 57.2812L305.656 88.0312L305.656 44.7188C305.656 41.4316 305.671 39.7866 305.031 38.5312C304.468 37.4269 303.573 36.5315 302.469 35.9688C301.213 35.329 299.568 35.3125 296.281 35.3125L273.719 35.3125Z" fill="#506cf7" fill-rule="nonzero" opacity="1" stroke="none"/>
<path d="M336.317 119.241C326.849 114.811 316.726 111.592 306.142 109.759C304.842 112.109 303.323 115.269 302.276 117.784C291.025 116.092 279.878 116.092 268.834 117.784C267.787 115.269 266.234 112.109 264.923 109.759C254.327 111.592 244.192 114.823 234.724 119.264C215.627 148.122 210.451 176.263 213.039 204.005C225.705 213.463 237.98 219.209 250.048 222.969C253.027 218.868 255.685 214.509 257.974 209.915C253.614 208.258 249.438 206.214 245.492 203.84C246.539 203.065 247.563 202.254 248.552 201.42C272.619 212.676 298.768 212.676 322.547 201.42C323.547 202.254 324.571 203.065 325.607 203.84C321.649 206.225 317.462 208.27 313.102 209.927C315.391 214.509 318.037 218.88 321.028 222.981C333.107 219.221 345.394 213.475 358.06 204.005C361.097 171.845 352.871 143.963 336.317 119.241ZM261.253 186.944C254.028 186.944 248.103 180.199 248.103 171.986C248.103 163.773 253.902 157.017 261.253 157.017C268.604 157.017 274.528 163.761 274.402 171.986C274.413 180.199 268.604 186.944 261.253 186.944ZM309.846 186.944C302.622 186.944 296.697 180.199 296.697 171.986C296.697 163.773 302.495 157.017 309.846 157.017C317.197 157.017 323.122 163.761 322.995 171.986C322.995 180.199 317.197 186.944 309.846 186.944Z" fill="#5865f2" fill-rule="nonzero" opacity="1" stroke="none"/>
</g>
</svg>
